<svg viewBox="0 0 24 24" xmlns="http://www.w3.org/2000/svg"><path d="m17.56 14.11a7.48 7.48 0 0 1 -1.77-.82 9.46 9.46 0 0 0 1.64-2.68 1.25 1.25 0 0 0 .46-.45c.73-1.29.9-2.32.52-3.14a1.89 1.89 0 0 0 -.51-.66 9.75 9.75 0 0 0 -.29-2.18 5.5 5.5 0 0 0 -5.53-3.75 5.5 5.5 0 0 0 -5.52 3.75 9.64 9.64 0 0 0 -.29 2.17 1.9 1.9 0 0 0 -.51.65c-.38.82-.21 1.85.52 3.15a1.24 1.24 0 0 0 .46.44 9.46 9.46 0 0 0 1.64 2.68 7.47 7.47 0 0 1 -1.77.82c-2.36.75-5.53 2.33-5.77 7.42a1 1 0 0 0 .79 1 54.3 54.3 0 0 0 10.46.94 54.29 54.29 0 0 0 10.46-.94 1 1 0 0 0 .79-1c-.25-5.08-3.42-6.66-5.78-7.4zm-9.65-5.11a2.14 2.14 0 0 1 -.34-1.1 1 1 0 0 0 .71-1 8.2 8.2 0 0 1 .21-2.18 3.45 3.45 0 0 1 3.59-2.28 3.45 3.45 0 0 1 3.59 2.26 8.23 8.23 0 0 1 .22 2.19 1 1 0 0 0 .71 1 2.15 2.15 0 0 1 -.35 1.11 1.26 1.26 0 0 0 -.63.72c-.21.72-1.68 3.54-3.54 3.54s-3.33-2.84-3.54-3.56a1.25 1.25 0 0 0 -.63-.7zm4.17 12.5a56.68 56.68 0 0 1 -9.17-.73c.43-3.09 2.31-4.11 4.3-4.74a9.22 9.22 0 0 0 2.79-1.4 4 4 0 0 0 4.25 0 9.22 9.22 0 0 0 2.75 1.37c2 .63 3.87 1.65 4.3 4.74a56.67 56.67 0 0 1 -9.22.75z"/></svg>